<svg class="workspace-network-frequency-icon-svg" xmlns="http://www.w3.org/2000/svg" width="24" height="24" viewBox="0 0 24 24" fill="none">
    <path
      d="M11.4375 3.60001C11.3438 3.84376 10.9688 6.22501 10.5938 8.90626C10.2375 11.5875 9.88125 13.9688 9.84375 14.1938C9.65625 14.9813 9.225 14.6625 8.90625 13.5375C8.23125 11.1188 8.15625 10.9688 7.63125 10.9125C7.0875 10.8375 7.0125 11.0438 6.54375 13.4438L6.31875 14.625L3.20625 14.6625L0.09375 14.7188V15.2813V15.8438L3.54375 15.9C5.7375 15.9188 7.06875 15.8813 7.21875 15.75C7.35 15.6375 7.51875 15.2813 7.59375 14.9438L7.725 14.3438L7.9125 14.9063C8.025 15.2063 8.19375 15.5813 8.30625 15.6938C8.55 16.0125 10.575 16.0125 10.8188 15.6938C10.9313 15.5813 11.1938 14.1188 11.4188 12.4688C11.6438 10.8188 11.85 9.45001 11.8875 9.43126C11.9062 9.41251 12.1688 11.85 12.45 14.8688C12.75 17.8875 13.0688 20.4563 13.1625 20.5688C13.425 20.9063 14.0438 20.8688 14.175 20.5313C14.2313 20.3813 14.5125 18.675 14.7938 16.7438C15.3 13.2 15.3375 13.1438 15.675 15.0563C15.75 15.5625 15.9 15.7875 16.2 15.8438C16.4062 15.9 18.2438 15.9188 20.25 15.9L23.9062 15.8438V15.2813V14.7188L20.4 14.6625L16.9125 14.625L16.6875 13.2563C15.975 8.96251 15.8438 8.38126 15.525 8.17501C14.8875 7.78126 14.6625 8.38126 14.2125 11.625C13.9688 13.3125 13.7625 14.5875 13.725 14.4375C13.7063 14.2875 13.4438 11.7938 13.1438 8.88751C12.8625 6.00001 12.5625 3.52501 12.4875 3.41251C12.2625 3.03751 11.625 3.16876 11.4375 3.60001Z"
      fill="#999DA0"
    />
  </svg>